<mxfile host="app.diagrams.net" modified="2024-01-10T11:06:25.174Z" agent="Mozilla/5.0 (Macintosh; Intel Mac OS X 10_15_7) AppleWebKit/537.36 (KHTML, like Gecko) Chrome/120.0.0.0 Safari/537.36" etag="5TjWyA0DSXve-jehB8oz" version="22.1.17" type="google">
  <diagram name="Page-1" id="HiJNElSozF-jv5poYlcu">
    <mxGraphModel grid="1" page="1" gridSize="10" guides="1" tooltips="1" connect="1" arrows="1" fold="1" pageScale="1" pageWidth="827" pageHeight="1169" math="0" shadow="0">
      <root>
        <mxCell id="0" />
        <mxCell id="1" parent="0" />
        <mxCell id="IkikPWgf-0t9Qd1be8A1-5" value="Paiements" style="swimlane;fontStyle=0;childLayout=stackLayout;horizontal=1;startSize=26;fillColor=none;horizontalStack=0;resizeParent=1;resizeParentMax=0;resizeLast=0;collapsible=1;marginBottom=0;whiteSpace=wrap;html=1;" vertex="1" parent="1">
          <mxGeometry x="160" y="90" width="190" height="52" as="geometry" />
        </mxCell>
        <mxCell id="IkikPWgf-0t9Qd1be8A1-19" style="edgeStyle=orthogonalEdgeStyle;rounded=0;orthogonalLoop=1;jettySize=auto;html=1;exitX=0.5;exitY=0;exitDx=0;exitDy=0;entryX=0.5;entryY=1;entryDx=0;entryDy=0;endArrow=none;endFill=0;" edge="1" parent="1" source="IkikPWgf-0t9Qd1be8A1-9" target="IkikPWgf-0t9Qd1be8A1-5">
          <mxGeometry relative="1" as="geometry" />
        </mxCell>
        <mxCell id="IkikPWgf-0t9Qd1be8A1-30" style="edgeStyle=orthogonalEdgeStyle;shape=connector;rounded=0;orthogonalLoop=1;jettySize=auto;html=1;exitX=1;exitY=0.25;exitDx=0;exitDy=0;entryX=0;entryY=0.25;entryDx=0;entryDy=0;labelBackgroundColor=default;strokeColor=default;align=center;verticalAlign=middle;fontFamily=Helvetica;fontSize=11;fontColor=default;endArrow=none;endFill=0;" edge="1" parent="1" source="IkikPWgf-0t9Qd1be8A1-9" target="IkikPWgf-0t9Qd1be8A1-12">
          <mxGeometry relative="1" as="geometry" />
        </mxCell>
        <mxCell id="IkikPWgf-0t9Qd1be8A1-32" style="edgeStyle=orthogonalEdgeStyle;shape=connector;rounded=0;orthogonalLoop=1;jettySize=auto;html=1;exitX=0;exitY=0.25;exitDx=0;exitDy=0;entryX=1;entryY=0.25;entryDx=0;entryDy=0;labelBackgroundColor=default;strokeColor=default;align=center;verticalAlign=middle;fontFamily=Helvetica;fontSize=11;fontColor=default;endArrow=none;endFill=0;" edge="1" parent="1" source="IkikPWgf-0t9Qd1be8A1-9" target="IkikPWgf-0t9Qd1be8A1-10">
          <mxGeometry relative="1" as="geometry" />
        </mxCell>
        <mxCell id="IkikPWgf-0t9Qd1be8A1-9" value="Orders" style="swimlane;fontStyle=0;childLayout=stackLayout;horizontal=1;startSize=26;fillColor=none;horizontalStack=0;resizeParent=1;resizeParentMax=0;resizeLast=0;collapsible=1;marginBottom=0;whiteSpace=wrap;html=1;" vertex="1" parent="1">
          <mxGeometry x="160" y="200" width="190" height="52" as="geometry" />
        </mxCell>
        <mxCell id="IkikPWgf-0t9Qd1be8A1-10" value="Reviews" style="swimlane;fontStyle=0;childLayout=stackLayout;horizontal=1;startSize=26;fillColor=none;horizontalStack=0;resizeParent=1;resizeParentMax=0;resizeLast=0;collapsible=1;marginBottom=0;whiteSpace=wrap;html=1;" vertex="1" parent="1">
          <mxGeometry x="-80" y="200" width="190" height="52" as="geometry" />
        </mxCell>
        <mxCell id="IkikPWgf-0t9Qd1be8A1-28" style="edgeStyle=orthogonalEdgeStyle;shape=connector;rounded=0;orthogonalLoop=1;jettySize=auto;html=1;exitX=1;exitY=0.25;exitDx=0;exitDy=0;entryX=0;entryY=0.25;entryDx=0;entryDy=0;labelBackgroundColor=default;strokeColor=default;align=center;verticalAlign=middle;fontFamily=Helvetica;fontSize=11;fontColor=default;endArrow=none;endFill=0;" edge="1" parent="1" source="IkikPWgf-0t9Qd1be8A1-11" target="IkikPWgf-0t9Qd1be8A1-17">
          <mxGeometry relative="1" as="geometry" />
        </mxCell>
        <mxCell id="IkikPWgf-0t9Qd1be8A1-11" value="Products" style="swimlane;fontStyle=0;childLayout=stackLayout;horizontal=1;startSize=26;fillColor=none;horizontalStack=0;resizeParent=1;resizeParentMax=0;resizeLast=0;collapsible=1;marginBottom=0;whiteSpace=wrap;html=1;" vertex="1" parent="1">
          <mxGeometry x="420" y="90" width="190" height="52" as="geometry" />
        </mxCell>
        <mxCell id="IkikPWgf-0t9Qd1be8A1-26" style="edgeStyle=orthogonalEdgeStyle;shape=connector;rounded=0;orthogonalLoop=1;jettySize=auto;html=1;exitX=0.5;exitY=0;exitDx=0;exitDy=0;entryX=0.5;entryY=1;entryDx=0;entryDy=0;labelBackgroundColor=default;strokeColor=default;align=center;verticalAlign=middle;fontFamily=Helvetica;fontSize=11;fontColor=default;endArrow=none;endFill=0;" edge="1" parent="1" source="IkikPWgf-0t9Qd1be8A1-12" target="IkikPWgf-0t9Qd1be8A1-11">
          <mxGeometry relative="1" as="geometry" />
        </mxCell>
        <mxCell id="IkikPWgf-0t9Qd1be8A1-29" style="edgeStyle=orthogonalEdgeStyle;shape=connector;rounded=0;orthogonalLoop=1;jettySize=auto;html=1;exitX=1;exitY=0.25;exitDx=0;exitDy=0;entryX=0;entryY=0.25;entryDx=0;entryDy=0;labelBackgroundColor=default;strokeColor=default;align=center;verticalAlign=middle;fontFamily=Helvetica;fontSize=11;fontColor=default;endArrow=none;endFill=0;" edge="1" parent="1" source="IkikPWgf-0t9Qd1be8A1-12" target="IkikPWgf-0t9Qd1be8A1-14">
          <mxGeometry relative="1" as="geometry" />
        </mxCell>
        <mxCell id="IkikPWgf-0t9Qd1be8A1-12" value="OrdersItems" style="swimlane;fontStyle=0;childLayout=stackLayout;horizontal=1;startSize=26;fillColor=none;horizontalStack=0;resizeParent=1;resizeParentMax=0;resizeLast=0;collapsible=1;marginBottom=0;whiteSpace=wrap;html=1;" vertex="1" parent="1">
          <mxGeometry x="420" y="200" width="190" height="52" as="geometry" />
        </mxCell>
        <mxCell id="IkikPWgf-0t9Qd1be8A1-20" style="edgeStyle=orthogonalEdgeStyle;shape=connector;rounded=0;orthogonalLoop=1;jettySize=auto;html=1;exitX=0.5;exitY=0;exitDx=0;exitDy=0;entryX=0.5;entryY=1;entryDx=0;entryDy=0;labelBackgroundColor=default;strokeColor=default;align=center;verticalAlign=middle;fontFamily=Helvetica;fontSize=11;fontColor=default;endArrow=none;endFill=0;" edge="1" parent="1" source="IkikPWgf-0t9Qd1be8A1-13" target="IkikPWgf-0t9Qd1be8A1-9">
          <mxGeometry relative="1" as="geometry" />
        </mxCell>
        <mxCell id="IkikPWgf-0t9Qd1be8A1-33" style="edgeStyle=orthogonalEdgeStyle;shape=connector;rounded=0;orthogonalLoop=1;jettySize=auto;html=1;exitX=1;exitY=0.25;exitDx=0;exitDy=0;entryX=0;entryY=0.25;entryDx=0;entryDy=0;labelBackgroundColor=default;strokeColor=default;align=center;verticalAlign=middle;fontFamily=Helvetica;fontSize=11;fontColor=default;endArrow=none;endFill=0;" edge="1" parent="1" source="IkikPWgf-0t9Qd1be8A1-13" target="IkikPWgf-0t9Qd1be8A1-15">
          <mxGeometry relative="1" as="geometry" />
        </mxCell>
        <mxCell id="IkikPWgf-0t9Qd1be8A1-13" value="Customers" style="swimlane;fontStyle=0;childLayout=stackLayout;horizontal=1;startSize=26;fillColor=none;horizontalStack=0;resizeParent=1;resizeParentMax=0;resizeLast=0;collapsible=1;marginBottom=0;whiteSpace=wrap;html=1;" vertex="1" parent="1">
          <mxGeometry x="160" y="300" width="190" height="52" as="geometry" />
        </mxCell>
        <mxCell id="IkikPWgf-0t9Qd1be8A1-14" value="Sellers" style="swimlane;fontStyle=0;childLayout=stackLayout;horizontal=1;startSize=26;fillColor=none;horizontalStack=0;resizeParent=1;resizeParentMax=0;resizeLast=0;collapsible=1;marginBottom=0;whiteSpace=wrap;html=1;" vertex="1" parent="1">
          <mxGeometry x="670" y="200" width="190" height="52" as="geometry" />
        </mxCell>
        <mxCell id="IkikPWgf-0t9Qd1be8A1-22" style="edgeStyle=orthogonalEdgeStyle;shape=connector;rounded=0;orthogonalLoop=1;jettySize=auto;html=1;exitX=0.75;exitY=0;exitDx=0;exitDy=0;entryX=0.25;entryY=1;entryDx=0;entryDy=0;labelBackgroundColor=default;strokeColor=default;align=center;verticalAlign=middle;fontFamily=Helvetica;fontSize=11;fontColor=default;endArrow=none;endFill=0;" edge="1" parent="1" source="IkikPWgf-0t9Qd1be8A1-15" target="IkikPWgf-0t9Qd1be8A1-14">
          <mxGeometry relative="1" as="geometry" />
        </mxCell>
        <mxCell id="IkikPWgf-0t9Qd1be8A1-34" style="edgeStyle=orthogonalEdgeStyle;shape=connector;rounded=0;orthogonalLoop=1;jettySize=auto;html=1;exitX=1;exitY=0.25;exitDx=0;exitDy=0;entryX=0;entryY=0.25;entryDx=0;entryDy=0;labelBackgroundColor=default;strokeColor=default;align=center;verticalAlign=middle;fontFamily=Helvetica;fontSize=11;fontColor=default;endArrow=none;endFill=0;" edge="1" parent="1" source="IkikPWgf-0t9Qd1be8A1-15" target="IkikPWgf-0t9Qd1be8A1-16">
          <mxGeometry relative="1" as="geometry" />
        </mxCell>
        <mxCell id="IkikPWgf-0t9Qd1be8A1-15" value="Geolocalisation" style="swimlane;fontStyle=0;childLayout=stackLayout;horizontal=1;startSize=26;fillColor=none;horizontalStack=0;resizeParent=1;resizeParentMax=0;resizeLast=0;collapsible=1;marginBottom=0;whiteSpace=wrap;html=1;" vertex="1" parent="1">
          <mxGeometry x="550" y="300" width="190" height="52" as="geometry" />
        </mxCell>
        <mxCell id="IkikPWgf-0t9Qd1be8A1-16" value="StatesName" style="swimlane;fontStyle=0;childLayout=stackLayout;horizontal=1;startSize=26;fillColor=none;horizontalStack=0;resizeParent=1;resizeParentMax=0;resizeLast=0;collapsible=1;marginBottom=0;whiteSpace=wrap;html=1;" vertex="1" parent="1">
          <mxGeometry x="827" y="300" width="190" height="52" as="geometry" />
        </mxCell>
        <mxCell id="IkikPWgf-0t9Qd1be8A1-17" value="ProductsCategoryNameTransalation" style="swimlane;fontStyle=0;childLayout=stackLayout;horizontal=1;startSize=26;fillColor=none;horizontalStack=0;resizeParent=1;resizeParentMax=0;resizeLast=0;collapsible=1;marginBottom=0;whiteSpace=wrap;html=1;" vertex="1" parent="1">
          <mxGeometry x="670" y="90" width="230" height="52" as="geometry" />
        </mxCell>
      </root>
    </mxGraphModel>
  </diagram>
</mxfile>
